<svg width="79" height="81" viewBox="0 0 79 81" fill="none" xmlns="http://www.w3.org/2000/svg">
<rect width="79" height="81" fill="#0A0C10"/>
<rect width="70" height="70" rx="17" fill="#FF6262" fill-opacity="0.16"/>
<rect x="0.5" y="0.5" width="69" height="69" rx="16.5" stroke="#FF1212" stroke-opacity="0.58"/>
<rect x="54" y="55" width="20" height="19" fill="#0A0C10"/>
<path d="M31.125 51V45.6667L25 39.4444V29.6667C25 28.6889 25.3427 27.8519 26.0281 27.1556C26.7135 26.4593 27.5375 26.1111 28.5 26.1111H30.25L28.5 27.8889V19H32V26.1111H39V19H42.5V27.8889L40.75 26.1111H42.5C43.4625 26.1111 44.2865 26.4593 44.9719 27.1556C45.6573 27.8519 46 28.6889 46 29.6667V39.4444L39.875 45.6667V51H31.125Z" fill="#FF1212" fill-opacity="0.89"/>
<path d="M68.3427 61.5861L65.4302 64.5131L68.3427 67.3827C68.8733 67.903 69.0858 68.6668 68.9006 69.3864C68.7152 70.1061 68.1601 70.6722 67.4444 70.8714C66.7284 71.0708 65.9606 70.873 65.4303 70.3527L62.4961 67.4114L59.5835 70.3527C59.0607 70.8756 58.2987 71.0797 57.5844 70.8884C56.8703 70.6969 56.3124 70.139 56.1209 69.4249C55.9297 68.7108 56.1338 67.9486 56.6566 67.4257L59.5836 64.5562L56.6566 61.6291C56.2706 61.2443 56.0537 60.7216 56.0537 60.1766C56.0537 59.6313 56.2706 59.1087 56.6566 58.7238C57.048 58.3418 57.5732 58.1278 58.1201 58.1278C58.667 58.1278 59.1922 58.3418 59.5835 58.7238L62.496 61.6294L65.43 58.7238H65.4303C65.8181 58.3408 66.3412 58.1262 66.8865 58.1262C67.4315 58.1262 67.9546 58.3408 68.3427 58.7238C68.7287 59.1087 68.9454 59.6313 68.9454 60.1766C68.9454 60.7216 68.7287 61.2443 68.3427 61.6291L68.3427 61.5861ZM50.8099 52.8554C47.7244 55.9531 45.9942 60.1489 46 64.5214C46.0056 68.8938 47.7465 73.0853 50.84 76.1749C53.9337 79.2647 58.1274 81 62.4999 81C66.8724 81 71.066 79.2647 74.1597 76.1749C77.2535 73.0851 78.9944 68.8939 79 64.5214C79.0058 60.1488 77.2756 55.9534 74.1901 52.8554C72.141 50.7983 69.5853 49.3182 66.7813 48.565C63.9772 47.8117 61.0238 47.8117 58.22 48.565C55.4158 49.3182 52.8602 50.7982 50.8112 52.8554H50.8099Z" fill="#BB0000"/>
</svg>
