<svg width="480" height="480" viewBox="0 0 480 480" fill="none" xmlns="http://www.w3.org/2000/svg">
<rect x="206" y="265" width="70" height="70" rx="17" fill="#0A0C10"/>
<rect x="206" y="265" width="70" height="70" rx="17" fill="#22C55E" fill-opacity="0.16"/>
<rect x="206.5" y="265.5" width="69" height="69" rx="16.5" stroke="#22C55E" stroke-opacity="0.58"/>
<path d="M234.333 316.667C233.861 316.667 233.465 316.507 233.146 316.188C232.826 315.868 232.667 315.472 232.667 315V288.333C232.667 287.861 232.826 287.465 233.146 287.146C233.465 286.826 233.861 286.667 234.333 286.667H237.667V283.333H244.333V286.667H247.667C248.139 286.667 248.535 286.826 248.854 287.146C249.174 287.465 249.333 287.861 249.333 288.333V300C246.556 300.028 244.194 301.007 242.25 302.938C240.306 304.868 239.333 307.222 239.333 310C239.333 311.278 239.556 312.486 240 313.625C240.444 314.764 241.069 315.778 241.875 316.667H234.333ZM236 293.333H246V290H236V293.333ZM248.5 316.667V311.667H244.333L250.167 303.333V308.333H254.333L248.5 316.667Z" fill="#22C55E"/>
<rect x="333" y="159" width="70" height="70" rx="17" fill="#0A0C10"/>
<rect x="333" y="159" width="70" height="70" rx="17" fill="#137FEC" fill-opacity="0.16"/>
<rect x="333.5" y="159.5" width="69" height="69" rx="16.5" stroke="#137FEC" stroke-opacity="0.58"/>
<path d="M356 208V189.333L368.5 180L381 189.333V208H371.625V197.111H365.375V208H356Z" fill="#137FEC"/>
<rect x="77" y="159" width="70" height="70" rx="35" fill="#0A0C10"/>
<rect x="77" y="159" width="70" height="70" rx="17" fill="white" fill-opacity="0.16"/>
<rect x="77.5" y="159.5" width="69" height="69" rx="16.5" stroke="white" stroke-opacity="0.58"/>
<path d="M108.125 210V204.667L102 198.444V188.667C102 187.689 102.343 186.852 103.028 186.156C103.714 185.459 104.537 185.111 105.5 185.111H107.25L105.5 186.889V178H109V185.111H116V178H119.5V186.889L117.75 185.111H119.5C120.462 185.111 121.286 185.459 121.972 186.156C122.657 186.852 123 187.689 123 188.667V198.444L116.875 204.667V210H108.125Z" fill="white" fill-opacity="0.85"/>
<rect x="205" y="31" width="70" height="70" rx="17" fill="#0A0C10"/>
<rect x="205" y="31" width="70" height="70" rx="17" fill="#EAB308" fill-opacity="0.16"/>
<rect x="205.5" y="31.5" width="69" height="69" rx="16.5" stroke="#EAB308" stroke-opacity="0.58"/>
<path d="M238.455 55.1818V49H241.545V55.1818H238.455ZM248.732 59.4318L246.607 57.3068L250.934 52.8636L253.098 55.0659L248.732 59.4318ZM250.818 67.5455V64.4545H257V67.5455H250.818ZM238.455 83V76.8182H241.545V83H238.455ZM231.268 59.3545L226.864 55.0659L229.066 52.9023L233.432 57.2682L231.268 59.3545ZM250.895 79.1364L246.607 74.6932L248.693 72.6068L253.098 76.8568L250.895 79.1364ZM223 67.5455V64.4545H229.182V67.5455H223ZM229.066 79.1364L226.902 76.9341L231.23 72.6068L232.35 73.65L233.47 74.7318L229.066 79.1364ZM240 75.2727C237.424 75.2727 235.235 74.3712 233.432 72.5682C231.629 70.7652 230.727 68.5758 230.727 66C230.727 63.4242 231.629 61.2348 233.432 59.4318C235.235 57.6288 237.424 56.7273 240 56.7273C242.576 56.7273 244.765 57.6288 246.568 59.4318C248.371 61.2348 249.273 63.4242 249.273 66C249.273 68.5758 248.371 70.7652 246.568 72.5682C244.765 74.3712 242.576 75.2727 240 75.2727Z" fill="#EAB308"/>
<circle cx="240" cy="194" r="31" fill="#0A0C10"/>
<circle cx="240" cy="194" r="31" fill="#D9D9D9" fill-opacity="0.1"/>
<path d="M232 214L234 200H224L242 174H246L244 190H256L236 214H232Z" fill="#E3E3E3" fill-opacity="0.3"/>
</svg>
